<?xml version="1.0" encoding="utf-8"?>
<!-- Generator: Adobe Illustrator 14.0.0, SVG Export Plug-In . SVG Version: 6.00 Build 43363)  -->
<!DOCTYPE svg PUBLIC "-//W3C//DTD SVG 1.1//EN" "http://www.w3.org/Graphics/SVG/1.1/DTD/svg11.dtd">
<svg version="1.1" id="Layer_1" xmlns="http://www.w3.org/2000/svg" xmlns:xlink="http://www.w3.org/1999/xlink" x="0px" y="0px"
	 width="554.812px" height="104.785px" viewBox="0 0 554.812 104.785" enable-background="new 0 0 554.812 104.785"
	 xml:space="preserve">
<g>
	<g>
		<path fill="#FFFFFF" d="M0.713,89.807l6.704-11.841c1.141-1.854,3.851-1.567,4.85-0.856c0.57,0.287,10.841,7.847,20.255,7.847
			c5.706,0,9.842-3.563,9.842-8.558c0-5.991-4.993-10.558-14.692-14.407C15.405,57.141,0,47.585,0,30.467
			C0,16.346,10.983,2.082,32.95,2.082c14.834,0,26.247,7.56,30.525,10.698c1.712,0.998,1.427,3.565,0.856,4.562l-7.275,10.984
			c-0.999,1.57-3.566,2.854-4.851,1.854c-1.283-0.712-11.696-8.559-20.397-8.559c-5.136,0-8.987,3.426-8.987,7.275
			c0,5.279,4.279,9.272,15.548,13.837c11.126,4.421,28.814,13.123,28.814,32.521c0,14.693-12.696,29.529-33.664,29.529
			c-18.543,0-28.813-7.701-32.095-10.984C0,92.373-0.429,91.802,0.713,89.807z"/>
		<path fill="#FFFFFF" d="M113.119,6.217c0-1.426,1.143-2.71,2.711-2.71h34.377c17.545,0,31.953,14.264,31.953,31.523
			c0,17.688-14.408,32.096-31.811,32.096h-14.977v33.521c0,1.427-1.283,2.709-2.711,2.709H115.83c-1.568,0-2.711-1.282-2.711-2.709
			V6.217z M148.924,46.301c6.135,0,11.27-4.85,11.27-11.271c0-5.99-5.135-10.555-11.27-10.555h-13.551v21.826H148.924z"/>
		<path fill="#FFFFFF" d="M348.633,6.217c0-1.426,1.141-2.71,2.709-2.71h42.65c17.117,0,31.096,13.835,31.096,30.812
			c0,13.123-8.701,23.679-21.111,28.673l19.543,36.229c0.998,1.854,0,4.135-2.424,4.135h-18.973c-1.141,0-1.998-0.713-2.283-1.28
			l-18.971-37.804h-9.842v36.377c0,1.427-1.285,2.707-2.711,2.707H351.34c-1.566,0-2.709-1.28-2.709-2.707L348.633,6.217
			L348.633,6.217z M392.139,46.158c5.851,0,10.84-5.42,10.84-11.411c0-5.992-4.989-10.841-10.84-10.841h-21.109v22.252H392.139
			L392.139,46.158z"/>
		<path fill="#FFFFFF" d="M472.738,6.931c0-1.854,1.428-3.424,3.424-3.424h16.688c1.854,0,3.424,1.569,3.424,3.424v37.516
			l31.668-39.512c0.567-0.713,1.854-1.427,2.709-1.427h17.975c2.709,0,4.137,3.139,2.568,5.278l-33.379,41.795l36.371,47.354
			c1.569,2.143,0,5.275-2.709,5.275H531.79c-0.998,0-2.283-0.568-2.568-0.998l-32.948-44.789v42.51c0,1.854-1.566,3.422-3.424,3.422
			h-16.688c-1.996,0-3.424-1.566-3.424-3.422V6.931L472.738,6.931z"/>
	</g>
	<g>
		<path fill="#FFFFFF" d="M310.154,99.509L260.617,0L211.08,99.509c-0.887,1.925,0.297,3.847,2.514,3.847h16.269
			c2.955,0,3.766,0,3.766,0l6.879-15.377l19.965-44.512h0.146l20.109,44.512l7.022,15.377c0,0,0.812,0,3.476,0h16.414
			C309.859,103.355,311.041,101.434,310.154,99.509z"/>
	</g>
</g>
</svg>
